<svg width="24" height="24" viewBox="0 0 24 24" fill="none" xmlns="http://www.w3.org/2000/svg">
<path d="M13.9359 23.8452C13.8375 23.8593 13.7344 23.878 13.6359 23.8921C13.7344 23.8733 13.8328 23.8593 13.9359 23.8452Z" fill="black"/>
<path d="M14.175 23.8032C14.1281 23.8126 14.0812 23.822 14.0297 23.8267C14.0812 23.822 14.1281 23.8126 14.175 23.8032Z" fill="black"/>
<path d="M13.3641 23.9204C13.2469 23.9345 13.1297 23.9438 13.0125 23.9532C13.1297 23.9485 13.2469 23.9345 13.3641 23.9204Z" fill="black"/>
<path d="M13.5984 23.8921C13.5422 23.9015 13.4859 23.9062 13.4297 23.9108C13.4813 23.9062 13.5422 23.9015 13.5984 23.8921Z" fill="black"/>
<path d="M14.5031 23.7373C14.461 23.7467 14.4188 23.7561 14.3766 23.7654C14.4188 23.7561 14.461 23.7467 14.5031 23.7373Z" fill="black"/>
<path d="M15.3141 23.5361C15.2813 23.5455 15.2437 23.5549 15.2109 23.5643C15.2437 23.5549 15.2766 23.5455 15.3141 23.5361Z" fill="black"/>
<path d="M15.0656 23.6016C15.0281 23.6109 14.9906 23.6203 14.9531 23.6297C14.9953 23.625 15.0281 23.6156 15.0656 23.6016Z" fill="black"/>
<path d="M14.7469 23.686C14.7094 23.6954 14.6672 23.7048 14.6297 23.7142C14.6672 23.7001 14.7094 23.6907 14.7469 23.686Z" fill="black"/>
<path d="M13.0078 23.958C12.9469 23.9627 12.8812 23.9674 12.8203 23.9721C12.8812 23.9674 12.9469 23.9627 13.0078 23.958Z" fill="black"/>
<path d="M24 12C24 5.37188 18.6281 0 12 0C5.37188 0 0 5.37188 0 12C0 18.6281 5.37188 24 12 24C12.0703 24 12.1406 24 12.2109 23.9953V14.6578H9.63281V11.6531H12.2109V9.44062C12.2109 6.87656 13.7766 5.47969 16.0641 5.47969C17.1609 5.47969 18.1031 5.55938 18.375 5.59688V8.27813H16.8C15.5578 8.27813 15.3141 8.86875 15.3141 9.73594V11.6484H18.2906L17.9016 14.6531H15.3141V23.5359C20.3297 22.0969 24 17.4797 24 12Z" fill="black"/>
<path d="M12.7922 23.9717C12.6656 23.9811 12.5437 23.9857 12.4172 23.9904C12.5437 23.9857 12.6656 23.9811 12.7922 23.9717Z" fill="black"/>
<path d="M12.4125 23.9907C12.3469 23.9907 12.2813 23.9954 12.2156 23.9954C12.2766 23.9954 12.3422 23.9954 12.4125 23.9907Z" fill="black"/>
</svg>
