<svg xmlns="http://www.w3.org/2000/svg">
    <symbol id="fb" viewBox="0 0 24 24">
        <path d="M13.9359 23.8452C13.8375 23.8593 13.7344 23.878 13.6359 23.8921C13.7344 23.8733 13.8328 23.8593 13.9359 23.8452Z"/>
        <path d="M14.175 23.8032C14.1281 23.8126 14.0812 23.822 14.0297 23.8267C14.0812 23.822 14.1281 23.8126 14.175 23.8032Z"/>
        <path d="M13.3641 23.9204C13.2469 23.9345 13.1297 23.9438 13.0125 23.9532C13.1297 23.9485 13.2469 23.9345 13.3641 23.9204Z"/>
        <path d="M13.5984 23.8921C13.5422 23.9015 13.4859 23.9062 13.4297 23.9108C13.4813 23.9062 13.5422 23.9015 13.5984 23.8921Z"/>
        <path d="M14.5031 23.7373C14.461 23.7467 14.4188 23.7561 14.3766 23.7654C14.4188 23.7561 14.461 23.7467 14.5031 23.7373Z"/>
        <path d="M15.3141 23.5361C15.2813 23.5455 15.2437 23.5549 15.2109 23.5643C15.2437 23.5549 15.2766 23.5455 15.3141 23.5361Z"/>
        <path d="M15.0656 23.6016C15.0281 23.6109 14.9906 23.6203 14.9531 23.6297C14.9953 23.625 15.0281 23.6156 15.0656 23.6016Z"/>
        <path d="M14.7469 23.686C14.7094 23.6954 14.6672 23.7048 14.6297 23.7142C14.6672 23.7001 14.7094 23.6907 14.7469 23.686Z"/>
        <path d="M13.0078 23.958C12.9469 23.9627 12.8812 23.9674 12.8203 23.9721C12.8812 23.9674 12.9469 23.9627 13.0078 23.958Z"/>
        <path d="M24 12C24 5.37188 18.6281 0 12 0C5.37188 0 0 5.37188 0 12C0 18.6281 5.37188 24 12 24C12.0703 24 12.1406 24 12.2109 23.9953V14.6578H9.63281V11.6531H12.2109V9.44062C12.2109 6.87656 13.7766 5.47969 16.0641 5.47969C17.1609 5.47969 18.1031 5.55938 18.375 5.59688V8.27813H16.8C15.5578 8.27813 15.3141 8.86875 15.3141 9.73594V11.6484H18.2906L17.9016 14.6531H15.3141V23.5359C20.3297 22.0969 24 17.4797 24 12Z"/>
        <path d="M12.7922 23.9717C12.6656 23.9811 12.5437 23.9857 12.4172 23.9904C12.5437 23.9857 12.6656 23.9811 12.7922 23.9717Z"/>
        <path d="M12.4125 23.9907C12.3469 23.9907 12.2813 23.9954 12.2156 23.9954C12.2766 23.9954 12.3422 23.9954 12.4125 23.9907Z"/>
    </symbol>
    <symbol id="vk" viewBox="0 0 24 24">
        <path d="M12 0C5.37423 0 0 5.37423 0 12C0 18.6258 5.37423 24 12 24C18.6258 24 24 18.6258 24 12C24 5.37423 18.6258 0 12 0ZM18.0859 13.3006C18.6503 13.8405 19.2393 14.3558 19.7301 14.9693C19.9509 15.2393 20.1718 15.5092 20.319 15.8282C20.5399 16.2699 20.3436 16.7607 19.9509 16.7853H17.4969C16.8589 16.8344 16.3681 16.589 15.9264 16.1472C15.5828 15.8037 15.2638 15.4356 14.9448 15.0675C14.8221 14.9202 14.6748 14.773 14.5031 14.6748C14.1595 14.454 13.865 14.5276 13.6933 14.8712C13.4969 15.2393 13.4479 15.6319 13.4233 16.0245C13.3988 16.6135 13.227 16.7607 12.638 16.7853C11.3865 16.8344 10.2086 16.6626 9.12883 16.0245C8.17178 15.4601 7.41104 14.6994 6.77301 13.816C5.49693 12.0982 4.53988 10.2086 3.65644 8.26994C3.46012 7.82822 3.60736 7.60736 4.09816 7.58282C4.90798 7.55828 5.69325 7.55828 6.50307 7.58282C6.82209 7.58282 7.04294 7.77914 7.16564 8.07362C7.60736 9.12883 8.1227 10.1595 8.78528 11.092C8.95705 11.3374 9.15337 11.5828 9.39877 11.7791C9.69325 11.9755 9.88957 11.9018 10.0368 11.5828C10.1104 11.3865 10.1595 11.1656 10.184 10.9448C10.2577 10.2086 10.2577 9.47239 10.135 8.7362C10.0613 8.2454 9.81595 7.95092 9.34969 7.85276C9.10429 7.80368 9.15337 7.73006 9.25153 7.58282C9.44785 7.36196 9.64417 7.21472 10.0123 7.21472H12.7853C13.227 7.31288 13.3252 7.48466 13.3742 7.92638V11.0184C13.3742 11.1902 13.4479 11.7055 13.7669 11.8037C14.0123 11.8773 14.184 11.681 14.3313 11.5337C14.9939 10.8221 15.4601 9.98773 15.9018 9.12883C16.0982 8.7362 16.2454 8.34356 16.4172 7.95092C16.5399 7.65644 16.7117 7.5092 17.0552 7.5092H19.7301C19.8037 7.5092 19.8773 7.5092 19.9755 7.53374C20.4172 7.60736 20.5399 7.80368 20.4172 8.2454C20.1963 8.93251 19.7791 9.52147 19.362 10.0859C18.9202 10.6994 18.4294 11.2883 17.9877 11.9264C17.546 12.5153 17.5706 12.8098 18.0859 13.3006Z"/>
    </symbol>
    <symbol id="in" viewBox="0 0 24 24">
        <path d="M14.2969 12C14.2969 13.2703 13.2703 14.2969 12 14.2969C10.7297 14.2969 9.70312 13.2703 9.70312 12C9.70312 10.7297 10.7297 9.70312 12 9.70312C13.2703 9.70312 14.2969 10.7297 14.2969 12Z"/>
        <path d="M17.3719 7.93574C17.2594 7.63574 17.0859 7.36387 16.8562 7.14355C16.6359 6.91387 16.3641 6.74043 16.0641 6.62793C15.8203 6.53418 15.4547 6.42168 14.7844 6.38887C14.0578 6.35606 13.8375 6.34668 12 6.34668C10.1578 6.34668 9.94218 6.35137 9.21561 6.38887C8.5453 6.42168 8.17968 6.53418 7.93593 6.62793C7.63593 6.74043 7.36405 6.91387 7.14374 7.14355C6.91405 7.36387 6.74061 7.63574 6.62811 7.93574C6.53436 8.17949 6.42186 8.54512 6.38905 9.21543C6.35624 9.94199 6.34686 10.1576 6.34686 11.9998C6.34686 13.8373 6.35624 14.0576 6.38905 14.7842C6.42186 15.4545 6.52968 15.8201 6.62811 16.0639C6.74061 16.3639 6.91405 16.6357 7.14374 16.8561C7.36405 17.0857 7.63593 17.2592 7.93593 17.3717C8.17968 17.4654 8.5453 17.5779 9.21561 17.6107C9.94218 17.6436 10.1578 17.6529 12 17.6529C13.8422 17.6529 14.0578 17.6482 14.7844 17.6107C15.4547 17.5779 15.8203 17.4701 16.0641 17.3717C16.6641 17.142 17.1422 16.6639 17.3719 16.0639C17.4656 15.8201 17.5781 15.4545 17.6109 14.7842C17.6437 14.0576 17.6531 13.8373 17.6531 11.9998C17.6531 10.1576 17.6484 9.94199 17.6109 9.21543C17.5781 8.54512 17.4656 8.17949 17.3719 7.93574ZM12 15.5389C10.0453 15.5389 8.46093 13.9545 8.46093 11.9998C8.46093 10.0451 10.0453 8.46074 12 8.46074C13.9547 8.46074 15.5391 10.0451 15.5391 11.9998C15.5391 13.9545 13.9547 15.5389 12 15.5389ZM15.6797 9.1498C15.225 9.1498 14.8547 8.77949 14.8547 8.32481C14.8547 7.87012 15.225 7.4998 15.6797 7.4998C16.1344 7.4998 16.5047 7.87012 16.5047 8.32481C16.5047 8.77949 16.1344 9.1498 15.6797 9.1498Z"/>
        <path d="M12 0C5.37188 0 0 5.37188 0 12C0 18.6281 5.37188 24 12 24C18.6281 24 24 18.6281 24 12C24 5.37188 18.6281 0 12 0ZM18.8484 14.8406C18.8156 15.5719 18.6984 16.0734 18.5297 16.5141C18.1734 17.4375 17.4422 18.1734 16.5141 18.5297C16.0781 18.6984 15.5766 18.8156 14.8406 18.8484C14.1047 18.8813 13.8703 18.8906 12 18.8906C10.1297 18.8906 9.89531 18.8813 9.15937 18.8484C8.42812 18.8156 7.92656 18.6984 7.48594 18.5297C7.02656 18.3562 6.60938 18.0844 6.26719 17.7328C5.91562 17.3906 5.64375 16.9734 5.47031 16.5141C5.30156 16.0781 5.18438 15.5766 5.15156 14.8406C5.11875 14.1047 5.10938 13.8703 5.10938 12C5.10938 10.1297 5.11875 9.89531 5.15156 9.15937C5.18438 8.42812 5.30156 7.92656 5.47031 7.48594C5.64375 7.02656 5.91562 6.60938 6.26719 6.26719C6.60938 5.91562 7.02656 5.64375 7.48594 5.47031C7.92656 5.30156 8.42344 5.18438 9.15937 5.15156C9.89531 5.11875 10.1297 5.10938 12 5.10938C13.8703 5.10938 14.1047 5.11875 14.8406 5.15156C15.5719 5.18438 16.0734 5.30156 16.5141 5.47031C16.9734 5.64375 17.3906 5.91562 17.7328 6.26719C18.0844 6.60938 18.3562 7.02656 18.5297 7.48594C18.6984 7.92656 18.8156 8.42344 18.8484 9.15937C18.8813 9.89531 18.8906 10.1297 18.8906 12C18.8906 13.8703 18.8813 14.1047 18.8484 14.8406Z"/>
    </symbol>
    <symbol id="tg" viewBox="0 0 24 24">
        <path d="M12 24C18.6281 24 24 18.6281 24 12C24 5.37188 18.6281 0 12 0C5.37188 0 0 5.37188 0 12C0 18.6281 5.37188 24 12 24ZM5.48906 11.7422L17.0625 7.27969C17.6016 7.0875 18.0703 7.41094 17.8922 8.22187L15.9234 17.5031C15.7781 18.1594 15.3844 18.3234 14.8406 18.0094L11.8406 15.7969L10.3922 17.1891C10.2328 17.3484 10.0969 17.4844 9.7875 17.4844L9.99844 14.4328L15.5625 9.4125C15.8062 9.20156 15.5063 9.07969 15.1875 9.29062L8.31562 13.6172L5.35312 12.6937C4.71094 12.4875 4.69688 12.0516 5.48906 11.7422Z"/>
    </symbol>
</svg>